<svg width="153" height="23" viewBox="0 0 153 23" fill="none" xmlns="http://www.w3.org/2000/svg">
<path d="M76.9084 23C75.3158 23 73.8048 22.9552 72.2939 22.2381C70.0887 21.2074 68.4961 19.1458 67.7202 16.7257C66.6177 13.3645 66.781 8.30025 68.2103 5.16311C69.3945 2.47413 71.3138 0.950383 73.8457 0.0540569C75.8058 -0.080392 77.5209 -0.035584 79.2769 1.04001C81.4004 2.33968 82.7888 4.62532 83.4422 7.13503C84.3814 10.6755 84.1773 15.202 82.503 18.4287C81.1962 20.8936 79.3586 22.1933 76.9084 23ZM74.7032 3.4601C72.9881 4.22198 71.8447 5.20793 71.1505 7.17985C70.2521 9.77919 70.2929 13.5886 71.3955 16.0535C72.0489 17.4876 73.1106 18.7873 74.4991 19.3251C74.9483 19.5043 75.3566 19.5043 75.8058 19.5492C75.9147 19.5492 76.0236 19.5641 76.1325 19.594C76.2142 19.594 76.2822 19.594 76.3367 19.594C78.1335 18.6976 79.1136 17.622 79.8486 15.6053C80.7879 13.006 80.7062 9.19658 79.6036 6.68687C78.9911 5.34238 77.9701 4.22198 76.6634 3.68418C76.0508 3.4601 75.3566 3.41528 74.7032 3.4601Z" fill="#002845"/>
<path d="M110.385 22.9794C108.534 23.0692 106.903 22.8896 105.229 21.9469C102.761 20.5552 101.13 18.0412 100.469 15.3028C99.5879 11.7563 99.8964 7.17721 101.835 4.07962C103.334 1.7452 105.317 0.622885 107.917 0.0392806C109.635 -0.0505047 111.134 -0.0505019 112.764 0.757566C115.1 1.92478 116.598 4.12452 117.347 6.59361C118.449 10.2748 118.185 15.0783 116.334 18.4453C114.968 20.9593 113.029 22.2612 110.385 22.9794ZM107.873 3.5858C105.846 4.75301 104.832 6.18957 104.215 8.4791C103.554 11.0829 103.642 14.6743 105.008 17.0536C105.669 18.2208 106.771 19.1635 108.049 19.4778C108.754 19.6125 109.503 19.5227 110.164 19.4778C112.191 18.3555 113.293 16.9189 113.91 14.6294C114.571 12.0705 114.483 8.52399 113.117 6.18957C112.412 4.97747 111.31 4.03472 109.944 3.72047C109.239 3.5409 108.534 3.5858 107.873 3.5858Z" fill="#002845"/>
<path d="M135.712 20.1594C134.517 21.269 133.24 22.1123 131.715 22.6005C131.468 22.6893 131.221 22.7633 130.974 22.8225C130.727 22.8816 130.479 22.926 130.232 22.9556C129.985 22.9852 129.738 23 129.491 23C129.243 23 128.983 22.9852 128.708 22.9556C128.461 22.926 128.214 22.8816 127.966 22.8225C127.719 22.7633 127.472 22.7041 127.225 22.6449C126.978 22.5562 126.744 22.4674 126.524 22.3786C126.277 22.2603 126.044 22.1419 125.824 22.0236C123.682 20.7808 122.281 18.5172 121.622 16.0317C120.674 12.481 120.715 7.68757 122.405 4.40316C123.641 2.05082 125.494 0.719305 127.884 0.0535469C132.086 -0.25714 132.375 0.808067 135.67 2.62781L136 2.84973L133.363 5.51276C132.457 4.75823 131.592 4.0481 130.438 3.64864C129.367 3.33796 128.296 3.38233 127.307 4.00371C125.742 5.02454 125.041 7.15497 124.712 8.97471C124.259 11.6821 124.465 14.9665 125.948 17.2745C126.689 18.3841 127.719 19.183 128.996 19.3605C129.944 19.4937 131.18 19.3605 131.88 18.606C132.869 17.4964 132.581 14.9221 132.622 13.5019C131.386 13.5462 129.944 13.9457 128.914 13.1468C128.584 12.3923 128.749 11.5046 128.832 10.7057C130.562 9.90677 133.94 10.4394 135.794 10.4838C135.794 13.6794 135.876 16.9194 135.712 20.1594Z" fill="#002845"/>
<path d="M7.16373 22.9542C4.62469 15.4426 1.72292 7.74789 0 0.0073313H3.62721C5.44081 5.7784 7.11839 11.5953 8.84131 17.4121C10.3375 11.5037 11.8338 5.77839 14.0101 0.0989272C15.3249 -0.0384792 16.6851 0.0073313 18 0.0073313C17.3199 1.473 16.7758 2.93866 16.2317 4.45013C14.9622 8.08377 13.7834 11.7327 12.6952 15.3968C11.9698 17.9618 11.335 20.5725 10.2922 23L7.16373 22.9542Z" fill="#002845"/>
<path d="M19.0178 22.8733C18.9645 15.2337 19.0311 7.60928 19.2175 0C23.0917 0.227369 26.926 0.136427 30.8003 0.0909531V3.41053C28.0577 3.38022 25.3284 3.39538 22.6124 3.45601L22.5325 9.50402C24.8891 9.41307 27.2855 9.50402 29.6021 9.5495L29.5621 12.7327H22.4527L22.4127 14.7335L22.3728 19.3264H31L30.9601 22.7824C27.0059 23.1462 22.9719 22.9643 19.0178 22.8733Z" fill="#002845"/>
<path d="M35.0764 23C34.9295 15.3726 35.0397 7.74517 35.0397 0.117748C37.316 0.117748 39.8126 -0.200056 42.0889 0.208556C43.6676 0.526365 45.2831 1.20738 46.2377 2.88723C47.1188 4.43087 47.3024 6.65553 46.972 8.42618C46.5314 10.6962 45.2097 12.0129 43.7044 13.1479C45.0261 16.4622 46.5314 19.6857 48 22.8638C47.1188 22.9092 46.201 22.9546 45.3565 22.9092C44.6589 22.8638 44.4754 22.6822 43.9981 22.0466C42.6763 19.5949 41.685 14.6916 39.372 13.5111C38.8213 13.5565 38.7846 13.5565 38.3807 13.9197C37.4261 16.0536 37.9401 20.4121 37.9768 22.9092C36.9855 22.9092 36.031 22.9546 35.0764 23ZM38.1604 3.29584C38.0136 5.74751 37.9401 8.15378 38.0503 10.56C39.7392 10.56 41.5015 10.6508 43.0068 9.56121C43.5942 8.60779 44.2184 7.51816 44.0715 6.29233C43.9614 5.4751 43.5575 4.88489 43.0435 4.47628C41.5749 3.25044 39.8493 3.25044 38.1604 3.29584Z" fill="#002845"/>
<path d="M50 22.8929C50 15.2664 50.1313 7.63997 50.0875 0.0589123C52.7563 0.195099 55.4689 -0.168077 58.094 0.104297C59.9753 0.331275 61.8566 0.830632 63.0816 2.46487C63.9567 3.64516 64.4379 5.41559 64.2192 6.86825C63.9129 8.82026 62.4691 9.86435 61.0253 10.9085C62.4254 11.544 63.6066 12.0887 64.3942 13.496C65.3567 15.1756 65.0067 17.2638 64.4817 19.0343C64.2192 19.579 63.9129 20.0784 63.4754 20.5323C60.4128 23.8462 54.1126 22.8475 50 22.8929ZM53.5439 3.1912C53.6314 5.18861 53.6751 7.18602 53.7189 9.13803C55.6877 9.09263 57.7877 9.22882 59.669 8.45709C60.2378 7.77616 60.6316 6.95903 60.5878 6.00572C60.5441 5.27939 60.1065 4.68926 59.5378 4.32609C57.7877 3.05502 55.5127 3.14581 53.5439 3.1912ZM53.7626 12.2249V19.4882C55.9939 19.4882 58.444 19.7152 60.4566 18.4895C61.0691 17.5362 61.6816 16.3105 61.3753 15.1302C61.1128 14.1315 60.5003 13.5414 59.669 13.0874C57.8315 12.1341 55.7752 12.2249 53.7626 12.2249Z" fill="#002845"/>
<path d="M87.1127 22.9086C87.0704 19.9364 86.8589 1.64613 87.155 0.502985C87.1973 0.320082 87.3665 0.228631 87.4934 0.0457284C88.551 0.13718 89.6932 0.0457257 90.7931 0C90.7085 6.46256 90.7367 12.9251 90.8777 19.3877H99C98.9718 20.607 98.9295 21.8111 98.8731 23C94.9812 22.9086 91.061 22.8781 87.1127 22.9086Z" fill="#002845"/>
<path d="M145.599 11.1144C146.196 9.39053 148.981 0.771197 149.936 0.136089C150.971 0.136089 151.966 0.0907298 153 0C151.329 5.35306 148.225 10.4793 147.35 16.1499C147.032 18.3728 147.072 20.641 147.072 22.9546C145.958 22.9093 144.883 22.9546 143.769 23C143.968 18.6903 143.61 15.3333 142.337 11.2959C141.024 7.53057 139.393 3.90138 138 0.181457L141.382 0.136089C143.133 3.44773 144.286 7.48521 145.599 11.1144Z" fill="#002845"/>
</svg>
