<svg width="72" height="54" viewBox="0 0 72 54" fill="none" xmlns="http://www.w3.org/2000/svg">
<path d="M10.5783 17.6532C10.5619 17.4055 10.5127 17.0752 10.6275 16.8275C10.8079 16.4312 11.7264 16.4807 12.1036 16.2C12.776 15.7376 13.3009 14.945 13.6945 14.2514C15.2526 11.4936 16.7451 8.66972 18.2539 5.89541C19.0248 4.45871 19.7628 2.87339 20.7305 1.56881C20.9929 1.22202 21.2225 1.02385 21.6161 0.842201C22.3214 0.776146 23.0102 0.858715 23.7154 0.92477C24.8635 2.29541 25.7656 3.84771 26.7496 5.33394L31.1779 11.989C31.9979 13.2605 32.7359 14.7963 33.8676 15.8037C34.376 16.2661 35.0321 16.4477 35.6717 16.6459L35.5897 17.6202C34.0152 17.6697 25.864 17.8514 24.8471 17.5706C24.7159 17.5376 24.7159 17.5706 24.6667 17.455C24.5847 17.2899 24.5847 17.0092 24.6667 16.844C24.8307 16.5303 25.2571 16.3982 25.5359 16.2495C25.8312 16.1174 26.2576 15.9523 26.3396 15.6055C26.4052 15.2917 26.1428 14.8624 25.946 14.6312C25.7984 14.433 25.6672 14.4165 25.4375 14.3835H19.5496C18.7132 14.3835 17.6635 14.2679 16.8599 14.4661C16.6466 14.4991 16.6138 14.5816 16.4662 14.7138C16.0562 15.7046 17.5159 16.2991 17.6635 17.1578C17.7127 17.389 17.6799 17.422 17.5651 17.6202C16.7451 17.7193 15.8594 17.6697 15.0394 17.6697C13.5523 17.6807 12.0653 17.6752 10.5783 17.6532ZM20.8453 6.73761C19.7628 8.6367 18.6804 10.5523 17.6799 12.4844C18.9592 12.4624 20.2384 12.4569 21.5177 12.4679C22.551 12.4679 23.6006 12.4514 24.6339 12.4844C23.8138 10.9486 21.9933 7.94312 20.8453 6.73761Z" fill="#002845"/>
<path d="M51.1876 23.3174C51.1056 23.3339 51.1384 23.3339 51.04 23.3339C48.4486 23.5982 45.1357 22.244 43.1511 20.6257C40.9042 18.8092 39.3789 16.2826 39.0837 13.3761C38.7721 10.3376 39.5593 7.43119 41.4946 5.05321C43.6104 2.47706 46.5461 1.17248 49.7935 0.858714C49.8263 0.847705 49.8646 0.8422 49.9083 0.8422C52.7293 0.544953 55.8454 1.6844 58.0268 3.46789C60.1753 5.21835 61.7006 7.94312 61.963 10.7339C62.2582 13.855 61.4218 16.778 59.4208 19.2055C57.3215 21.7651 54.4186 22.9872 51.1876 23.3174ZM51.4336 3.0055C51.3844 4.17798 51.3024 5.33394 51.4172 6.50642C52.1552 6.34128 52.8933 6.19266 53.6149 5.97798L53.8773 5.86238C53.9265 5.64771 53.9101 5.54862 53.7953 5.35046C53.4017 4.57431 52.2208 3.35229 51.4336 3.0055ZM49.4491 3.13761C48.7439 3.73211 47.3006 4.83853 47.2186 5.84587C47.3498 6.07706 47.4646 6.07706 47.7106 6.15963C48.3229 6.26972 48.9407 6.37981 49.5639 6.48991C49.5475 5.94495 49.6459 3.38532 49.4491 3.13761ZM46.4805 3.4844C46.0541 3.68257 45.0044 4.02936 44.8404 4.47523C44.7912 4.59082 44.8732 4.70642 44.9224 4.8055C44.9552 4.84954 44.9826 4.88807 45.0044 4.9211C45.2997 4.93761 45.3489 4.88807 45.5621 4.68991C45.8245 4.4422 46.4477 3.81468 46.4805 3.4844ZM57.4691 5.59816C57.1411 5.87339 56.8186 6.15963 56.5015 6.45688C56.8459 7.61284 57.0263 8.85137 57.3871 10.0073C57.4691 10.255 57.4527 10.5028 57.4527 10.7505L57.5347 10.9321C58.0432 11.0147 58.5844 10.9486 59.0928 10.9321L60.2409 10.8991C59.7981 9.3633 58.9944 6.65505 57.6659 5.68073C57.5839 5.63119 57.5511 5.61468 57.4691 5.59816ZM43.2003 5.82936C41.9703 7.44771 41.3634 9.01651 40.9206 10.9982L42.3475 11.0312H43.7088C43.84 9.49541 44.1352 8.1578 44.6272 6.70459C44.1844 6.40734 43.6924 5.99449 43.2003 5.82936ZM46.2017 7.5633C45.9065 8.70275 45.7425 9.82569 45.6113 10.9817L49.2031 10.9486C49.3343 10.9156 49.4163 10.9321 49.4983 10.7835C49.7771 10.3046 49.5639 8.95046 49.5311 8.37248C48.383 8.22385 47.3006 7.9266 46.2017 7.5633ZM54.5826 7.59633C53.5329 7.95963 52.4505 8.22385 51.3516 8.45504C51.3516 9.29725 51.3516 10.1394 51.3516 10.9817H52.3028L55.5502 10.9982C55.4518 10.0734 55.4354 8.35596 54.8286 7.64587C54.7466 7.62936 54.6646 7.59633 54.5826 7.59633ZM57.5183 12.8312C57.2559 14.5156 56.9279 16.1009 56.3539 17.7193C56.6983 18.033 57.0591 18.3633 57.4199 18.6771C57.7316 18.3303 58.0596 17.9835 58.322 17.6037C59.3552 16.167 59.9129 14.5982 60.2245 12.8477C59.3224 12.8477 58.4204 12.8807 57.5183 12.8312ZM40.9042 12.8807C41.0518 14.7468 41.8063 16.6128 43.0855 17.967L44.0204 17.3229C44.2172 17.2073 44.3648 17.1908 44.4304 16.9596C44.1352 15.6055 43.84 14.3009 43.676 12.9138C42.7739 12.8642 41.8063 12.8312 40.9042 12.8807ZM45.6605 12.8972C45.6113 14.1688 45.9393 15.3248 46.2509 16.5468C47.2186 16.233 48.1698 15.9523 49.1867 15.8862L49.4327 15.8532C49.6459 15.4073 49.5147 13.4917 49.5147 12.8972C48.2354 12.8807 46.9397 12.8477 45.6605 12.8972ZM51.4172 12.8807C51.3516 13.8716 51.3188 14.8954 51.3516 15.8862C52.4669 16.1174 53.5657 16.4807 54.681 16.6459C54.8614 16.5138 54.845 16.4477 54.9106 16.2495C55.1894 15.1431 55.4682 14.0202 55.5338 12.8642L51.4172 12.8807ZM48.9899 17.7853C48.301 17.8844 47.6122 17.9835 46.9398 18.1321C47.3826 18.9413 47.8254 19.6679 48.4978 20.3119C48.8587 20.5596 49.2031 20.7908 49.5967 20.989C49.5967 20.1468 49.7771 18.5119 49.4819 17.7853C49.2851 17.7358 49.1703 17.7523 48.9899 17.7853ZM51.4336 17.7523C51.4336 18.8257 51.4008 19.9156 51.4336 20.989C51.9748 20.6752 52.3849 20.3119 52.8277 19.8661C53.2049 19.3541 53.5821 18.8422 53.9265 18.2972C53.1065 18.0661 52.27 17.9174 51.4336 17.7523Z" fill="#002845"/>
<path d="M19.3698 25.1835C21.83 22.3266 24.6017 20.9725 28.2755 20.4275C28.7512 20.3284 29.4236 20.3615 29.8828 20.5761C30.1288 20.7083 30.26 20.8404 30.3912 21.0881C30.8505 21.9468 31.1949 22.9376 31.5557 23.8624L33.6878 29.0642L36.558 36.033C37.132 37.4367 37.7389 38.8404 38.2309 40.2771C30.8669 40.3761 23.4865 40.2605 16.1225 40.244L10.5625 40.2606C9.29968 40.244 8.00401 40.178 6.74114 40.2606C4.67462 40.1945 2.5917 40.211 0.508789 40.1945C0.902411 39.1211 1.39444 38.0642 1.83726 37.0073L4.21539 31.178C5.44546 28.1229 6.54432 24.9853 7.8728 21.9633C8.02041 21.6495 8.21722 21.1046 8.49603 20.8899C9.16847 20.345 10.9562 20.5596 11.7598 20.6587C14.958 21.1211 17.4345 22.6073 19.3698 25.1835ZM28.4723 22.244C25.6514 22.5413 22.9616 23.4661 21.1247 25.7615C20.8186 26.1358 20.5288 26.5266 20.2555 26.9339C20.2555 30.5174 20.2063 34.1174 20.2555 37.7009C22.0268 36.3963 23.8637 35.2404 25.9958 34.6459C28.2591 33.9853 31.1293 34.2826 33.1958 35.422C33.8081 35.7633 34.3931 36.1431 34.9507 36.5615C34.3439 35.0587 29.2596 22.5743 28.948 22.244C28.8004 22.244 28.6364 22.2275 28.4723 22.244ZM9.54569 22.2771C8.39763 25.1009 7.33157 27.9578 6.21631 30.7982C5.59307 32.3835 4.88783 33.9523 4.3466 35.5541C7.79079 34.0844 10.8906 33.8532 14.4168 35.2899C14.5042 35.3339 14.5862 35.3725 14.6628 35.4055C16.0733 36.0826 17.3361 36.8587 18.599 37.7835C18.681 34.2 18.5826 30.6165 18.681 27.033C16.8441 24.5395 14.794 22.8716 11.6614 22.4092C10.9616 22.2991 10.2564 22.255 9.54569 22.2771Z" fill="#002845"/>
<path d="M49.5959 39.1706C49.2515 39.2532 48.9071 39.3193 48.5627 39.3688C46.3485 39.6165 43.954 39.055 42.1991 37.6349C41.051 36.6771 40.2474 35.3395 40.0998 33.8367C39.9358 32.1853 40.395 30.5339 41.4611 29.2624C42.9535 27.4624 45.0365 26.8184 47.2834 26.6202C49.0711 26.455 51.2196 27.2477 52.5809 28.4037C54.2538 29.8239 55.1886 32.1193 54.6146 34.2991C54.4178 35.0257 53.975 35.7358 53.9094 36.4789C53.7618 37.7505 54.0898 39.2532 54.1882 40.5413C53.0237 40.0128 51.9412 39.3193 50.7768 38.7908L49.5959 39.1706Z" fill="#002845"/>
<path d="M66.7187 39.0716C66.2813 39.1706 65.844 39.2532 65.4066 39.3193C63.2745 39.5835 60.9948 39.1376 59.2727 37.7835C57.977 36.7762 57.1405 35.356 56.9437 33.7211C56.7469 32.1523 57.1405 30.567 58.1246 29.3284C59.4859 27.611 61.5852 26.9339 63.6681 26.7028C65.0622 26.4881 66.7515 26.8844 67.9815 27.5119C69.5068 28.2716 70.7205 29.5927 71.2453 31.2275C71.885 33.2257 71.3273 34.745 70.4089 36.5284C70.6057 37.8495 70.6221 39.2202 70.7369 40.5578C69.6872 39.9303 68.5884 39.3358 67.4731 38.8239L66.7187 39.0716Z" fill="#002845"/>
</svg>
