<svg width="94" height="76" viewBox="0 0 94 76" fill="none" xmlns="http://www.w3.org/2000/svg">
<path d="M57.905 27.8888C57.2124 27.5651 56.4699 27.2982 55.767 26.9858C55.4441 26.8409 55.1264 26.6888 54.8139 26.5297C54.5014 26.3705 54.1946 26.2044 53.8935 26.0315C53.5924 25.8586 53.2975 25.679 53.0087 25.4929C52.7199 25.3068 52.4377 25.1143 52.1621 24.9155C49.2301 22.8143 47.0379 19.9177 46.8097 16.6979C46.6265 14.1147 47.8798 11.6716 49.9863 9.75897C54.1962 5.9364 60.7742 4.74505 66.835 4.47146C68.0469 4.44954 69.2721 4.53468 70.4733 4.65846C76.1602 5.24445 81.6475 7.07014 85.2201 10.8324C87.3417 13.0664 88.4516 15.955 87.9918 18.7662C87.537 21.5467 85.4232 23.8833 82.7231 25.5577C78.6769 28.0667 73.2999 29.1819 68.2554 29.1717C66.5822 29.1684 64.942 29.0188 63.2858 28.8418C62.7604 29.3742 62.2916 29.9412 61.7365 30.4549C60.8108 31.3895 58.0668 33.8227 56.7926 34.3364C56.622 34.4052 56.481 34.4435 56.2942 34.3946C56.0648 34.1967 56.1646 33.9652 56.2879 33.7411C56.5332 33.2954 56.849 32.8768 57.0703 32.4214C57.6947 31.1354 58.1571 29.2335 57.905 27.8888ZM66.6878 4.87718C60.8119 5.11153 54.4856 6.37705 50.3798 10.0213C48.2666 11.8969 47.1635 14.196 47.3222 16.7424C47.5128 19.803 49.6789 22.5703 52.4407 24.5747C53.3034 25.2008 54.2537 25.7963 55.2418 26.2864C55.6148 26.4723 55.9945 26.6488 56.3809 26.8158C56.7837 26.9879 58.1345 27.4022 58.3618 27.6581C58.4526 27.7601 58.4737 28.0218 58.4826 28.1509C58.6179 30.1134 57.8857 32.0581 56.8469 33.8096C57.4482 33.4694 57.9764 33.0458 58.505 32.6363C59.7665 31.6594 60.9556 30.6406 62.0288 29.5246C62.3702 29.1417 62.6992 28.7377 63.0699 28.3736C64.3119 28.5042 65.5565 28.6946 66.8082 28.7485C72.2738 28.984 78.1531 27.9202 82.5563 25.1892C85.114 23.6027 87.1045 21.2624 87.5319 18.6421C87.9841 15.8692 86.7669 13.09 84.6785 10.9078C81.3723 7.45299 76.0176 5.62567 70.7715 5.08741C69.4322 4.94999 68.0393 4.83822 66.6878 4.87718Z" fill="#313031"/>
<path d="M65.5955 14.9397C65.0113 14.9637 60.9972 14.98 60.6661 14.7352C60.5934 14.6815 60.5639 14.5798 60.5519 14.5035C60.5158 14.2732 60.5773 14.0221 60.6262 13.7954C60.655 13.6578 60.6892 13.5211 60.7287 13.3853C60.7684 13.2495 60.8134 13.1149 60.8636 12.9815C60.9139 12.848 60.9694 12.7159 61.0301 12.5854C61.0909 12.4548 61.1567 12.3259 61.2277 12.1988C61.2987 12.0715 61.3746 11.9463 61.4554 11.8231C61.5363 11.6999 61.622 11.5789 61.7124 11.4601C61.8029 11.3413 61.898 11.2249 61.9977 11.111C62.0973 10.9972 62.2014 10.886 62.31 10.7775C63.6808 9.39255 65.626 8.63856 67.7836 8.43773C68.0673 8.42234 68.3513 8.41786 68.6356 8.42429C68.9198 8.43072 69.2031 8.44804 69.4853 8.47625C71.192 8.65816 72.8478 9.33384 73.8934 10.4602C75.8588 12.5771 74.7854 15.1913 72.838 17.0213C72.0827 17.731 71.0303 18.3042 70.5831 19.1961C70.1218 20.1163 70.5575 21.0793 70.3963 22.0184C68.9345 22.118 66.9184 22.1669 65.4805 21.9474C65.2003 21.2454 65.3139 20.3751 65.3614 19.6462C65.657 18.1699 66.3606 17.2309 67.5075 16.0881C67.9061 15.691 68.3343 15.2946 68.5873 14.8205C68.763 14.4912 68.8555 14.0904 68.675 13.7489C68.5627 13.5366 68.3494 13.3866 68.0846 13.3048C67.7067 13.1882 67.2834 13.2112 66.9188 13.3478C66.1125 13.6498 65.8636 14.316 65.5955 14.9397ZM68.2955 8.81045C66.1709 8.96334 64.2683 9.50469 62.8593 10.8553C61.6911 11.9751 61.2994 13.0558 61.0279 14.4726C62.4435 14.4713 63.8558 14.5623 65.2714 14.5471C65.5773 13.8995 65.908 13.2731 66.7445 12.9673C67.2106 12.7968 67.7714 12.7613 68.2498 12.9217C68.3003 12.9384 68.3496 12.9572 68.3977 12.9781C68.4459 12.9988 68.4926 13.0215 68.5379 13.0462C68.5832 13.0708 68.6268 13.0972 68.6688 13.1254C68.7108 13.1536 68.7509 13.1834 68.7892 13.2149C68.8275 13.2464 68.8637 13.2793 68.8978 13.3137C68.9319 13.3481 68.9638 13.3839 68.9935 13.4209C69.0232 13.4579 69.0505 13.4961 69.0754 13.5354C69.1003 13.5746 69.1227 13.6148 69.1426 13.6559C69.3589 14.1011 69.2514 14.608 69.0159 15.0341C68.7842 15.4531 68.396 15.7973 68.0434 16.1509C67.2927 16.9039 66.5449 17.6908 66.1651 18.6198C65.8071 19.6259 65.8171 20.5968 65.8711 21.6343L69.9254 21.6446C69.8347 20.2179 69.6767 19.2078 70.9425 18.0771C71.3762 17.6898 71.8519 17.3345 72.2832 16.9456C73.6127 15.747 74.5045 14.351 74.4089 12.7058C74.349 11.6766 73.7737 10.7887 72.8275 10.1075C71.6957 9.29265 69.8964 8.70655 68.3645 8.80533C68.3415 8.80682 68.3185 8.80875 68.2955 8.81045Z" fill="#313031"/>
<path d="M61.0283 14.4726C61.2998 13.0558 61.6915 11.9751 62.8597 10.8552C64.2687 9.50466 66.1713 8.96331 68.2959 8.81042C68.3189 8.80871 68.3419 8.80678 68.3649 8.8053C69.8968 8.70651 71.6961 9.29262 72.8279 10.1075C73.7741 10.7886 74.3494 11.6765 74.4093 12.7058C74.5049 14.351 73.6131 15.747 72.2836 16.9456C71.8523 17.3345 71.3766 17.6898 70.9429 18.0771C69.6771 19.2077 69.8351 20.2178 69.9258 21.6445L65.8715 21.6343C65.8175 20.5967 65.8075 19.6259 66.1655 18.6198C66.5453 17.6908 67.2931 16.9039 68.0438 16.1509C68.3964 15.7973 68.7846 15.4531 69.0163 15.034C69.2519 14.6079 69.3593 14.101 69.143 13.6559C69.1231 13.6147 69.1007 13.5746 69.0758 13.5353C69.0509 13.496 69.0236 13.4579 68.9939 13.4209C68.9642 13.3838 68.9323 13.3481 68.8982 13.3137C68.8641 13.2793 68.8279 13.2463 68.7896 13.2149C68.7513 13.1834 68.7112 13.1536 68.6692 13.1253C68.6272 13.0971 68.5836 13.0707 68.5383 13.0462C68.493 13.0215 68.4463 12.9988 68.3981 12.978C68.35 12.9572 68.3007 12.9384 68.2503 12.9216C67.7718 12.7612 67.211 12.7968 66.7449 12.9673C65.9084 13.273 65.5777 13.8995 65.2718 14.5471C63.8562 14.5622 62.4439 14.4712 61.0283 14.4726Z" fill="#787777"/>
<path d="M33.4828 26.3929C32.6943 25.7624 31.829 24.1032 31.5384 23.2638C31.245 22.4164 31.0036 21.2688 31.5668 20.4633C31.5937 20.4729 31.6211 20.4815 31.6474 20.492C32.3271 20.7637 32.9353 22.0032 33.1776 22.539C33.6471 23.5772 34.0822 25.3552 33.4828 26.3929Z" fill="#313031"/>
<path d="M40.425 26.7079C40.3339 26.6928 40.3344 26.6743 40.2747 26.6203C40.191 26.3856 40.2258 26.1223 40.2488 25.8812C40.385 24.4536 41.141 23.1567 42.4934 22.219C42.5341 22.2433 42.598 22.2765 42.629 22.3111C42.7319 22.4263 42.7275 22.5967 42.7204 22.7321C42.7033 23.0542 42.5905 23.3856 42.491 23.6964C42.1184 24.8601 41.5393 25.888 40.425 26.7079Z" fill="#313031"/>
<path d="M67.895 26.5592C67.3367 26.5799 66.7511 26.4253 66.299 26.1645C66.2633 26.1438 66.2282 26.1225 66.1938 26.1004C66.1594 26.0784 66.1256 26.0556 66.0927 26.0322C66.0597 26.0088 66.0274 25.9847 65.9958 25.96C65.9643 25.9353 65.9336 25.91 65.9037 25.884C65.8737 25.8581 65.8445 25.8315 65.8162 25.8044C65.7878 25.7773 65.7604 25.7496 65.7337 25.7213C65.7071 25.6931 65.6814 25.6644 65.6565 25.6351C65.6317 25.6058 65.6078 25.576 65.5847 25.5458C65.5617 25.5156 65.5396 25.4849 65.5185 25.4538C65.4974 25.4226 65.4772 25.3911 65.4581 25.3592C65.4389 25.3272 65.4206 25.2949 65.4034 25.2623C65.3863 25.2296 65.3702 25.1966 65.355 25.1633C65.3398 25.1299 65.3257 25.0963 65.3126 25.0624C65.2995 25.0285 65.2874 24.9944 65.2765 24.9601C65.2655 24.9257 65.2556 24.8911 65.2468 24.8563C65.2379 24.8215 65.2301 24.7866 65.2234 24.7515C65.2174 24.7173 65.2125 24.6831 65.2087 24.6487C65.2048 24.6143 65.202 24.5799 65.2003 24.5454C65.1986 24.5109 65.1979 24.4764 65.1984 24.4419C65.1988 24.4074 65.2003 24.3729 65.2028 24.3385C65.2054 24.304 65.209 24.2697 65.2137 24.2354C65.2184 24.201 65.2242 24.1669 65.231 24.1328C65.2378 24.0987 65.2456 24.0648 65.2546 24.0311C65.2635 23.9973 65.2734 23.9638 65.2844 23.9304C65.2954 23.8971 65.3074 23.864 65.3205 23.8311C65.3336 23.7983 65.3476 23.7657 65.3627 23.7334C65.3777 23.7011 65.3938 23.6692 65.4109 23.6376C65.428 23.6059 65.446 23.5747 65.465 23.5437C65.484 23.5128 65.5039 23.4823 65.5248 23.4522C65.5457 23.4221 65.5675 23.3925 65.5903 23.3633C65.613 23.3341 65.6366 23.3053 65.6611 23.2771C65.6856 23.2488 65.711 23.2211 65.7372 23.1939C66.1877 22.7178 66.8563 22.4629 67.5788 22.3903C68.2098 22.3751 68.8387 22.5103 69.3337 22.837C69.8717 23.1918 70.2059 23.7338 70.2795 24.2881C70.3532 24.8429 70.1659 25.4233 69.7183 25.8534C69.2429 26.31 68.6048 26.5021 67.895 26.5592ZM67.4174 22.7925C66.8273 22.9148 66.3512 23.1145 66.0298 23.5545C66.0114 23.58 65.9937 23.6058 65.9768 23.6321C65.96 23.6582 65.9439 23.6848 65.9287 23.7116C65.9135 23.7384 65.8991 23.7656 65.8856 23.793C65.872 23.8205 65.8592 23.8481 65.8474 23.876C65.8355 23.904 65.8245 23.9321 65.8143 23.9605C65.8042 23.9888 65.7949 24.0174 65.7865 24.0461C65.7781 24.0749 65.7706 24.1038 65.7639 24.1328C65.7573 24.1619 65.7516 24.191 65.7468 24.2203C65.7419 24.2496 65.738 24.2789 65.7349 24.3083C65.7319 24.3378 65.7297 24.3672 65.7285 24.3967C65.7273 24.4263 65.7269 24.4558 65.7275 24.4853C65.728 24.5148 65.7295 24.5443 65.7319 24.5738C65.7343 24.6033 65.7376 24.6327 65.7417 24.662C65.7459 24.6913 65.7509 24.7206 65.7569 24.7497C65.7629 24.7789 65.7697 24.8079 65.7774 24.8367C65.7852 24.8656 65.7938 24.8943 65.8033 24.9228C65.8121 24.949 65.8216 24.9751 65.8319 25.001C65.8421 25.0268 65.8532 25.0525 65.8651 25.0779C65.877 25.1034 65.8896 25.1285 65.9029 25.1535C65.9163 25.1784 65.9305 25.2031 65.9453 25.2275C65.9601 25.2518 65.9757 25.2759 65.992 25.2997C66.0084 25.3234 66.0254 25.3469 66.0431 25.37C66.0608 25.393 66.0793 25.4157 66.0983 25.4381C66.1174 25.4605 66.1372 25.4825 66.1576 25.5041C66.1781 25.5257 66.1991 25.5468 66.2208 25.5675C66.2425 25.5883 66.2649 25.6086 66.2878 25.6285C66.3108 25.6484 66.3343 25.6678 66.3583 25.6867C66.3824 25.7057 66.4071 25.7241 66.4323 25.7421C66.4575 25.7601 66.4833 25.7775 66.5096 25.7945C66.5359 25.8115 66.5626 25.8279 66.5899 25.8438C66.6172 25.8597 66.6449 25.875 66.6731 25.8898C66.7012 25.9046 66.7298 25.9189 66.7589 25.9325C67.181 26.1293 67.6356 26.18 68.1151 26.1525C68.6916 26.0444 69.1599 25.8523 69.4863 25.4339C69.7998 25.0322 69.8667 24.5406 69.7232 24.0844C69.5796 23.6278 69.2438 23.2106 68.7302 22.9749C68.3297 22.7911 67.8688 22.7421 67.4174 22.7925Z" fill="#313031"/>
<path d="M68.1154 26.1524C67.6359 26.18 67.1813 26.1293 66.7592 25.9325C66.7302 25.9189 66.7015 25.9046 66.6734 25.8898C66.6452 25.875 66.6175 25.8597 66.5902 25.8438C66.5629 25.8279 66.5362 25.8115 66.5099 25.7945C66.4836 25.7775 66.4578 25.7601 66.4326 25.7421C66.4074 25.7241 66.3827 25.7057 66.3586 25.6867C66.3346 25.6678 66.3111 25.6484 66.2881 25.6285C66.2652 25.6086 66.2428 25.5883 66.2211 25.5675C66.1994 25.5468 66.1784 25.5256 66.158 25.5041C66.1375 25.4824 66.1177 25.4605 66.0987 25.4381C66.0796 25.4157 66.0611 25.393 66.0434 25.37C66.0257 25.3469 66.0087 25.3234 65.9924 25.2997C65.976 25.2759 65.9604 25.2518 65.9456 25.2275C65.9308 25.2031 65.9166 25.1784 65.9032 25.1535C65.8899 25.1285 65.8773 25.1033 65.8654 25.0779C65.8535 25.0525 65.8424 25.0268 65.8322 25.0009C65.8219 24.9751 65.8124 24.949 65.8036 24.9228C65.7941 24.8943 65.7855 24.8656 65.7777 24.8367C65.77 24.8079 65.7632 24.7789 65.7572 24.7497C65.7512 24.7206 65.7462 24.6913 65.742 24.662C65.7379 24.6326 65.7346 24.6033 65.7322 24.5738C65.7298 24.5443 65.7283 24.5148 65.7278 24.4853C65.7272 24.4558 65.7276 24.4263 65.7288 24.3967C65.73 24.3672 65.7322 24.3378 65.7352 24.3083C65.7383 24.2789 65.7422 24.2496 65.7471 24.2203C65.7519 24.191 65.7576 24.1618 65.7642 24.1328C65.7709 24.1038 65.7784 24.0749 65.7868 24.0461C65.7952 24.0174 65.8045 23.9888 65.8146 23.9605C65.8248 23.9321 65.8358 23.904 65.8477 23.876C65.8596 23.8481 65.8723 23.8204 65.8859 23.793C65.8994 23.7655 65.9138 23.7384 65.929 23.7116C65.9442 23.6847 65.9603 23.6582 65.9771 23.6321C65.994 23.6058 66.0117 23.58 66.0301 23.5545C66.3515 23.1145 66.8276 22.9148 67.4177 22.7925C67.8691 22.7421 68.33 22.7911 68.7305 22.9748C69.2441 23.2106 69.5799 23.6278 69.7235 24.0843C69.867 24.5406 69.8001 25.0322 69.4866 25.4339C69.1602 25.8523 68.6919 26.0444 68.1154 26.1524Z" fill="#787777"/>
<path d="M27.754 29.4329L27.69 29.4214C26.3394 29.1683 24.6102 28.358 23.8922 27.3698C23.7225 27.1362 23.6237 26.9407 23.7043 26.6733C23.8047 26.6791 23.9054 26.6865 24.0045 26.7014C25.4023 26.9113 26.6431 27.72 27.4246 28.6521C27.6138 28.8776 27.8176 29.154 27.754 29.4329Z" fill="#313031"/>
<path d="M9.97712 40.4321C11.6091 39.6214 13.3281 38.9046 15.0129 38.1685L21.6419 35.2375C24.613 33.9004 27.5977 32.5837 30.5963 31.2872C31.9884 30.6763 33.3924 29.9779 34.8166 29.4257C35.3277 29.2276 35.7993 29.0915 36.3605 29.0311C39.3901 28.7709 44.5146 30.3349 47.1747 31.5207C52.1329 33.7308 56.1395 37.2725 57.7356 41.722C59.4169 41.5642 61.2447 41.6736 62.9074 41.9121C69.2695 42.8245 75.4425 45.9732 79.8555 49.7147C80.6468 50.3857 81.4762 51.1058 82.1395 51.8629C82.3343 52.0853 82.3443 52.3381 82.4781 52.5803C82.8612 53.2734 83.5883 54.1998 84.2375 54.7291C85.2104 55.5223 86.9272 55.6973 87.6858 56.5871C87.0061 57.0469 85.8044 57.4721 84.9961 57.8172C83.5725 58.4227 82.1542 59.0362 80.7411 59.6576C75.8091 61.8054 70.8618 63.9303 65.8993 66.0321L61.5051 67.9116C60.3945 68.3922 59.2988 68.8972 58.153 69.322C57.853 69.2256 57.5694 69.1024 57.283 68.9826C56.5249 68.6519 55.7976 68.256 55.0495 67.9078L47.6241 64.418C37.9514 59.9283 28.3492 55.3422 18.8177 50.6595C16.2994 49.4488 13.7908 48.2061 11.2476 47.0318L7.84723 45.4635C7.08033 45.1081 6.17118 44.7611 5.51758 44.2768C6.23186 43.7017 8.2065 43.121 9.1828 42.6433C9.2399 42.5583 9.29412 42.4721 9.34546 42.3848C9.39681 42.2975 9.44525 42.2091 9.49078 42.1197C9.53625 42.0302 9.57872 41.9399 9.61819 41.8486C9.65766 41.7573 9.69408 41.6652 9.72743 41.5723C9.76078 41.4795 9.79104 41.3859 9.81821 41.2918C9.84533 41.1976 9.86932 41.1029 9.89018 41.0077C9.91105 40.9124 9.92874 40.8168 9.94324 40.7208C9.95775 40.6248 9.96904 40.5286 9.97712 40.4321ZM36.5154 29.8119C35.3885 30.0026 34.3213 30.5894 33.3286 31.0461C32.5861 31.3921 31.8365 31.7277 31.0798 32.0528C27.5223 33.5888 23.9763 35.142 20.4417 36.7123C17.4421 38.075 14.4209 39.4055 11.378 40.7039C13.6621 41.633 16.2224 41.9096 18.6387 42.531C24.4962 44.0374 29.9906 47.489 32.2748 52.2045L32.4427 52.6046C37.8553 50.2194 43.2842 47.8587 48.7294 45.5228L53.8854 43.2738C54.8441 42.8575 55.7946 42.4229 56.7847 42.0566C55.1761 37.6185 51.6469 34.3978 46.6617 32.1914C44.0801 31.0488 39.4838 29.6433 36.5154 29.8119ZM10.3923 40.9465C9.95435 42.1751 9.67832 42.989 8.43804 43.8453C10.8984 44.7421 13.2131 45.9507 15.5652 47.018C19.9509 49.0082 24.8516 51.101 28.8377 53.5607C27.2648 51.0166 22.7625 48.7082 19.6477 47.5421C19.3078 47.4148 18.3553 47.146 18.1816 46.8784C18.1527 46.8341 18.1782 46.795 18.19 46.7489C18.3116 46.6827 18.4077 46.6766 18.5525 46.6984C19.2049 46.7967 20.5273 47.4051 21.1804 47.6768C23.9985 48.9521 26.7423 50.4703 28.7051 52.5789C28.8383 52.7222 28.9615 52.8709 29.0747 53.025C29.1879 53.1791 29.2905 53.3378 29.3823 53.501C29.5082 53.729 29.605 53.9902 29.7673 54.2012C30.1635 54.7165 31.3858 55.546 31.9626 56.0336C31.9874 52.8073 30.1355 50.0587 27.3918 47.8138C24.8095 45.701 21.3632 44.1171 17.8569 43.2606C15.0961 42.5862 12.8694 42.2453 10.3923 40.9465ZM59.0447 42.3943C58.4372 42.4279 57.9027 42.4851 57.3396 42.6798C55.89 43.1809 54.4962 43.8667 53.1058 44.4702L46.024 47.5302L38.685 50.7244C37.509 51.2332 36.273 51.6765 35.1407 52.2462C38.4788 52.3289 41.7101 53.3138 44.5713 54.6578C45.2275 54.3135 45.9989 54.1177 46.6987 53.8368C47.8127 53.3897 48.9014 52.8865 49.9922 52.4034C55.349 50.0305 60.6852 47.6406 66.1297 45.4006C64.0708 44.5787 61.7796 43.807 59.4397 43.839C57.5884 44.8336 55.5195 45.6274 53.5482 46.4566C54.4243 46.6174 58.2249 47.5309 58.6431 47.9994C58.6838 48.0449 58.6825 48.0487 58.7055 48.0943C58.6751 48.1631 58.6976 48.158 58.6242 48.1848C58.4851 48.2358 58.3017 48.2232 58.1591 48.1849C57.5561 48.0232 56.9859 47.7544 56.3813 47.5808C55.4793 47.3218 54.5425 47.1473 53.6466 46.8747C53.3302 47.3056 52.8843 47.6108 52.4091 47.9247C53.0387 48.2686 53.9302 48.6696 54.2441 49.2531L54.2355 49.3422L54.2585 49.3246C54.2408 49.3271 54.2233 49.3306 54.2054 49.332C53.7958 49.3658 52.3851 48.3954 52.0616 48.1584C51.955 48.0811 51.8531 48.0001 51.7558 47.9153C52.2866 47.4164 53.0068 47.1105 53.3915 46.5062C51.4665 47.3344 49.5263 48.1687 47.6471 49.0629C48.5931 49.1959 52.3308 49.7902 52.822 50.3976C52.8826 50.4726 52.8776 50.5071 52.8772 50.5933C52.7934 50.6518 52.7478 50.6597 52.6358 50.6517C52.0123 50.6073 51.1159 50.1307 50.4844 49.9621C49.3433 49.6575 48.1554 49.5421 46.9945 49.3116C45.2839 50.0576 43.5085 50.7371 41.834 51.5317C42.8421 51.7041 45.1955 52.15 45.7994 52.876C45.8595 52.9483 45.8714 53.0025 45.863 53.0874C45.8109 53.1328 45.8059 53.1583 45.7231 53.1633C45.3666 53.1848 44.4277 52.6408 44.0651 52.502C43.7534 52.3827 43.4271 52.2946 43.1044 52.1973C42.6547 52.0849 42.2018 51.9681 41.7347 51.9137C41.4347 51.8786 41.0956 51.8918 40.8056 51.8372C40.6845 51.8144 40.6839 51.7909 40.6246 51.708C40.6219 51.6209 40.6053 51.5805 40.6955 51.5174C40.9979 51.3057 41.5292 51.1494 41.8923 50.9969L45.3551 49.5523L58.6926 43.791C58.6991 43.777 58.7055 43.7628 58.7123 43.7488C58.7609 43.6471 58.7925 43.5557 58.9207 43.5034C59.2555 43.3668 59.8088 43.4476 60.1686 43.479C61.9279 43.6323 63.6015 44.0004 65.2332 44.5556C65.7119 44.7185 66.7059 45.0047 66.9521 45.3663L66.9478 45.4378C66.4506 45.7827 65.6883 45.9897 65.106 46.2363L60.5208 48.1967C58.5191 49.0631 56.4908 49.9081 54.5113 50.8057C51.3934 52.2194 48.285 53.7027 45.0346 54.9079C46.0298 55.458 47.04 55.9935 48.015 56.5667C50.9981 58.3207 53.9239 60.3135 56.4347 62.5015L73.4993 55.2846L78.049 53.351C79.0215 52.94 80.0939 52.5539 80.9777 52.0274C76.4198 47.3069 68.8837 43.2631 61.4328 42.5141C60.6683 42.4372 59.8105 42.3391 59.0447 42.3943ZM8.30492 43.4283C7.69489 43.7346 7.09293 44.0365 6.4383 44.2782C7.39305 44.8912 8.51767 45.3332 9.57486 45.8187L13.3409 47.5811C17.5344 49.5664 21.7084 51.578 25.8628 53.616L28.9601 55.1413C29.4709 55.3896 30.0352 55.6181 30.5222 55.893C30.8593 56.0428 31.1944 56.1988 31.5395 56.3362C30.5594 55.4471 29.5482 54.5871 28.403 53.8343C26.3055 52.4554 23.8662 51.3434 21.5365 50.2395C18.8114 48.9353 16.0651 47.661 13.2978 46.4164C11.6404 45.6737 9.93158 44.9785 8.29385 44.2107C8.11477 44.1268 7.96382 44.0589 7.94041 43.8803C7.9978 43.7063 8.17272 43.5886 8.32634 43.4649L8.30492 43.4283ZM81.8089 52.6176C79.2593 53.6973 76.7481 54.8296 74.2127 55.9299L65.9198 59.4679C62.8181 60.796 59.7225 62.1481 56.5984 63.4401C56.9298 64.621 57.4281 65.6501 58.053 66.742L58.9118 66.3949C63.3821 64.4472 67.8382 62.4744 72.3376 60.5708C76.3904 58.8559 80.4957 57.209 84.5058 55.4303C83.8134 54.9002 83.1814 54.3437 82.6715 53.6876C82.4224 53.3669 82.2371 52.9961 81.9527 52.697C81.9149 52.6573 81.8728 52.6239 81.8089 52.6176ZM34.5945 53.1208L33.4202 53.1957C33.508 53.7182 33.6078 54.2439 33.6479 54.7704C33.686 55.2725 33.6593 55.7846 33.7469 56.2826C33.9587 55.6333 34.0552 55.0001 34.8299 54.6207C35.7842 54.1535 37.073 54.3243 38.0881 54.5438C40.7778 55.1256 43.1642 56.2492 45.4377 57.5187C45.8592 57.754 46.5285 58.0479 46.7885 58.4063C46.8427 58.4811 46.8464 58.506 46.8386 58.5886C46.7272 58.6439 46.7072 58.6633 46.5717 58.6363C46.0541 58.5328 44.754 57.6302 44.2097 57.3385C42.3752 56.3554 37.4313 54.1215 35.3169 54.8868C34.8946 55.0397 34.6286 55.3177 34.4752 55.6643C34.4063 55.8199 34.3614 55.9881 34.3154 56.1487C34.7266 56.2469 35.1348 56.3456 35.5377 56.4648C35.7215 56.3924 35.8904 56.3329 36.0957 56.316C37.2824 56.2191 39.2951 56.7284 40.447 57.0486C42.5262 57.6267 44.4033 58.4609 46.2548 59.4097C46.5298 59.5506 47.2501 59.8597 47.3589 60.1082C47.3999 60.2018 47.3857 60.2325 47.3408 60.3172C47.2423 60.3542 47.1848 60.365 47.0786 60.3317C46.3845 60.1135 45.3475 59.4325 44.6632 59.0987C42.7402 58.1607 40.6872 57.4997 38.5197 57.0356C37.6247 56.8586 36.7742 56.7098 35.8479 56.6962L51.6892 64.0567C52.8086 64.5853 53.9345 65.1045 55.0671 65.6142C55.9089 65.991 56.7904 66.3487 57.5975 66.7714C56.9208 65.6474 56.3558 64.5761 56.1031 63.3314C50.5922 59.0828 42.7109 53.0721 34.5945 53.1208ZM84.9499 55.7333C78.5803 58.3754 72.2444 61.0693 65.9422 63.8151C64.5893 64.4117 63.2296 64.9981 61.8632 65.5743C60.8504 66.0003 59.8066 66.4034 58.8279 66.8782C58.6517 66.9637 58.3465 67.0967 58.286 67.2632C58.118 67.7258 58.2844 68.3385 58.294 68.8197L59.6077 68.26C65.706 65.6929 71.7799 63.0886 77.8293 60.4471C79.6862 59.6367 81.5481 58.8338 83.415 58.0385C84.5742 57.5416 85.7824 57.0725 86.8901 56.5028C86.3323 56.2258 85.6067 55.7996 84.9499 55.7333ZM32.8312 56.3252C32.5959 56.4111 32.3508 56.4901 32.1283 56.5964C32.9731 57.175 34.0183 57.5583 34.977 57.9979C36.0204 58.4765 37.0465 58.9827 38.0784 59.4774L50.3222 65.2484C52.675 66.3215 55.0114 67.4175 57.3313 68.5364L57.7649 68.7321C57.7875 68.2548 57.788 67.7908 57.7164 67.3153C56.4913 66.6701 55.1461 66.1252 53.8707 65.5421C51.6743 64.5408 49.4901 63.5223 47.3182 62.4866C44.2433 61.0249 41.1526 59.5852 38.0463 58.1675C37.027 57.7093 36.0452 57.1448 34.9791 56.7639C34.3993 56.5569 33.8321 56.5497 33.21 56.554C33.099 56.4619 32.9951 56.3508 32.8312 56.3252Z" fill="#313031"/>
<path d="M22.6456 42.5404C22.2518 42.6199 21.4472 42.196 21.0538 42.0487C20.0223 41.6625 18.9065 41.3501 17.8041 41.1261C17.209 41.0053 16.4783 40.9566 15.9259 40.7539C15.7921 40.7047 15.7187 40.666 15.6709 40.5528C15.7801 40.3859 16.0299 40.2891 16.2265 40.1983C17.4858 39.617 18.7855 39.0761 20.0618 38.5178L27.2111 35.3547L33.1075 32.7212C34.279 32.1921 35.4192 31.6126 36.6295 31.1422C38.1012 31.0481 42.2452 31.9991 43.4445 32.6689C43.5646 32.7359 43.6637 32.7988 43.6922 32.9207C43.6095 33.0872 43.251 33.2381 43.0627 33.3304C42.1823 33.7619 41.2534 34.1457 40.3567 34.5564L33.6131 37.6157C29.9623 39.2578 26.3395 40.9636 22.6456 42.5404ZM36.8564 31.5455C35.4936 32.1334 34.1029 32.7308 32.7763 33.3703C34.5005 33.9214 36.317 34.3875 37.8957 35.1872L38.5663 34.8843C40.0272 34.2262 41.4767 33.5244 42.9806 32.9332C41.3617 32.3742 39.7886 31.9205 38.0532 31.663C37.6691 31.606 37.2456 31.5284 36.8564 31.5455ZM32.1827 33.5728C31.1801 34.0742 30.1255 34.515 29.0931 34.975C28.5651 35.2102 28.0143 35.4356 27.5232 35.7193C28.6056 35.9368 30.256 36.5917 31.2813 37.0014C31.7062 37.1711 32.2481 37.4646 32.7013 37.5501C34.2684 36.8502 35.8458 36.1537 37.393 35.426C35.7393 34.6693 33.9051 34.2113 32.1827 33.5728ZM26.8014 35.991C25.2154 36.6915 23.5909 37.3641 22.0417 38.1158C23.2729 38.5059 24.5338 38.8144 25.7283 39.2794C26.0102 39.389 27.2032 39.9187 27.3786 39.8985C28.9579 39.1921 30.5461 38.499 32.143 37.8191C31.2731 37.4683 27.5277 35.9366 26.8014 35.991ZM21.3758 38.3688C19.8455 39.0859 18.3077 39.8573 16.7213 40.4873C18.7112 40.8497 20.5609 41.3685 22.3881 42.1031C22.517 42.1277 22.5737 42.0998 22.6957 42.0562C23.4548 41.785 24.1828 41.3811 24.8982 41.0406C25.5114 40.7487 26.1509 40.4858 26.756 40.1845C26.7844 40.1704 26.8127 40.1561 26.8408 40.1417C25.4784 39.6494 24.1172 39.1685 22.7157 38.752C22.2786 38.6221 21.8252 38.4624 21.3758 38.3688Z" fill="#313031"/>
<path d="M36.8203 33.0408C36.6426 33.0012 36.4604 32.9729 36.2813 32.9375C36.0199 32.886 35.7268 32.8478 35.5784 32.6494C35.5751 32.5551 35.5536 32.5575 35.6326 32.48C36.242 32.3721 37.2406 32.6853 37.8045 32.8667C37.7078 32.685 37.6201 32.5189 37.5874 32.321C37.5852 32.3073 37.5834 32.2937 37.5813 32.28C37.7211 32.283 37.8538 32.2739 37.9711 32.3426C38.3385 32.5582 38.6187 33.3134 38.6736 33.674C38.6946 33.8121 38.7067 33.9662 38.5932 34.0798L38.5027 34.07C38.2399 33.851 38.1548 33.5804 38.0437 33.297C37.7705 33.2687 37.5143 33.2251 37.2484 33.1672C36.9845 33.5029 36.8046 33.8011 36.2957 33.9025C36.1448 33.8397 36.0881 33.802 36.0292 33.6745C36.0761 33.4333 36.5892 33.2023 36.8203 33.0408Z" fill="#313031"/>
<path d="M32.5561 35.7833C32.6023 35.7525 32.6165 35.7265 32.6444 35.6845C32.4428 35.5332 31.901 35.5507 31.6287 35.5245C31.4061 35.5031 31.0664 35.4933 30.9194 35.3424C30.9232 35.2794 30.9041 35.2767 30.9554 35.2432C31.2699 35.038 32.3391 35.1842 32.7361 35.202C32.2733 35.0143 31.5011 35.1003 31.1706 34.7203C31.1778 34.6315 31.1732 34.6273 31.246 34.5619C31.7959 34.5873 33.7739 34.7935 34.1683 35.0398C34.1854 35.1127 34.1744 35.1572 34.141 35.2246C33.959 35.5912 33.4152 35.8999 32.9697 36.0406C32.7653 36.105 32.5697 36.1619 32.3607 36.0845C32.36 36.0686 32.3588 36.0527 32.3588 36.0368C32.3588 35.9197 32.4259 35.8848 32.521 35.8105L32.5561 35.7833Z" fill="#313031"/>
<path d="M51.1222 42.7804C50.7542 42.6757 50.6788 42.4292 50.5388 42.1598C50.2111 41.5301 49.8759 40.8966 49.4532 40.3038C48.3882 38.8106 46.7542 37.5088 45.0425 36.4955C44.5232 36.1882 43.5649 35.8789 43.1832 35.5158C43.1653 35.3916 43.2179 35.3416 43.2844 35.2308C43.7224 35.3102 44.1589 35.5446 44.5317 35.7388C47.1132 37.0833 49.2151 38.8405 50.5509 41.0917C50.7911 41.4965 51.0973 41.9513 51.2039 42.3936C51.2433 42.5575 51.2358 42.6397 51.1222 42.7804Z" fill="#313031"/>
<path d="M26.7059 38.0196C26.4436 38.0825 26.2056 38.1591 25.932 38.1098C25.8333 38.048 25.8317 38.0545 25.812 37.9558C25.9576 37.6723 26.4009 37.6853 26.6448 37.4877C26.4039 37.3325 25.8128 37.4924 25.4597 37.2542C25.3918 37.1309 25.4112 37.0979 25.4362 36.968C25.5786 36.9671 25.7211 36.969 25.8635 36.9736C26.3729 36.9925 27.4671 37.0313 27.8301 37.3506C27.8467 37.406 27.8712 37.4353 27.8411 37.4909C27.6895 37.7708 27.0389 37.9152 26.7059 38.0196Z" fill="#313031"/>
<path d="M46.4341 43.7249C45.9717 43.6639 45.8716 43.3274 45.6703 43.0044C45.4092 42.5858 45.1538 42.1657 44.843 41.7691C43.7913 40.4272 42.2479 39.0828 40.6208 38.192C40.0684 37.8894 39.1302 37.6669 38.7173 37.3295C38.6638 37.2019 38.6876 37.1533 38.7178 37.0231C38.8969 37.0412 39.0649 37.0791 39.2346 37.128C42.0369 37.9353 45.0212 40.8455 46.2924 43.0018C46.4369 43.2469 46.5495 43.4574 46.4341 43.7249Z" fill="#313031"/>
<path d="M27.4941 38.5126C27.4249 38.4781 27.3878 38.4436 27.334 38.3951C27.3104 38.3067 27.2942 38.2854 27.361 38.2054C27.5646 37.9617 28.3222 37.8173 28.6658 37.7513C28.7625 37.7779 28.8114 37.8267 28.8816 37.884C28.892 37.9333 28.911 37.9565 28.8779 38.0029C28.6569 38.3127 27.895 38.439 27.4941 38.5126Z" fill="#313031"/>
<path d="M42.2377 46.0142C42.0207 45.9553 41.9133 45.8154 41.8049 45.6616C41.3937 45.078 41.0441 44.4815 40.5948 43.9128C39.6255 42.6858 38.0992 41.3555 36.6605 40.4813C36.2068 40.2057 34.78 39.6192 34.5532 39.3726C34.5148 39.26 34.5832 39.1682 34.6358 39.0657C35.0247 39.1692 35.3871 39.3316 35.7359 39.503C35.8918 39.5812 36.046 39.6614 36.1987 39.7436C36.3514 39.8258 36.5025 39.9099 36.6518 39.9961C36.8012 40.0822 36.9488 40.1702 37.0947 40.2601C37.2405 40.3501 37.3845 40.4419 37.5268 40.5356C37.669 40.6293 37.8093 40.7248 37.9477 40.8221C38.0862 40.9194 38.2226 41.0186 38.3571 41.1194C38.4916 41.2203 38.624 41.3229 38.7545 41.4272C38.8849 41.5315 39.0132 41.6375 39.1395 41.7451C39.2656 41.8527 39.3897 41.962 39.5116 42.0729C39.6334 42.1837 39.7531 42.2961 39.8705 42.41C39.988 42.524 40.1031 42.6394 40.216 42.7563C40.3287 42.8733 40.4392 42.9917 40.5473 43.1115C40.6555 43.2313 40.7612 43.3525 40.8646 43.475C40.968 43.5976 41.0688 43.7214 41.1672 43.8466C41.2657 43.9717 41.3615 44.0981 41.4549 44.2258C41.5483 44.3534 41.6392 44.4823 41.7275 44.6123C41.9422 44.9324 42.2507 45.29 42.3444 45.6451C42.3866 45.805 42.3471 45.8852 42.2377 46.0142Z" fill="#313031"/>
<path d="M20.881 39.7915C20.5843 39.684 20.104 39.685 19.8959 39.4809C19.8793 39.364 19.9025 39.3343 19.9576 39.2286L20.0202 39.2273C20.5429 39.2206 22.0303 39.3684 22.3858 39.6934C22.4344 39.7379 22.4191 39.7604 22.4188 39.8151C22.2355 40.0268 21.7042 39.9844 21.4076 40.07C21.3935 40.0742 21.3794 40.0786 21.3653 40.0829C21.149 40.1691 20.9129 40.2757 20.6714 40.299C20.5041 40.3152 20.3047 40.315 20.1684 40.2268L20.1647 40.1522C20.3471 39.9378 20.5925 39.8802 20.881 39.7915Z" fill="#313031"/>
<path d="M21.9979 40.834C21.9505 40.8413 21.8804 40.8411 21.8316 40.8436C21.7322 40.7765 21.7164 40.7747 21.6875 40.6742C21.8256 40.3772 22.505 40.1689 22.8365 40.0427C22.934 40.0671 23.0348 40.0843 23.1093 40.1441C23.157 40.1825 23.1419 40.2125 23.1439 40.2628C22.9307 40.5516 22.3673 40.7107 21.9979 40.834Z" fill="#313031"/>
<path d="M37.9827 47.7886C37.8472 47.7672 37.7405 47.7482 37.6457 47.6619C37.3292 47.3742 37.1497 46.9488 36.9043 46.6154C36.6593 46.2871 36.3933 45.9703 36.1063 45.6652C35.8192 45.3599 35.5127 45.068 35.1869 44.7894C34.7582 44.421 34.3111 44.0676 33.8458 43.7295C33.3805 43.3913 32.8986 43.0694 32.4 42.7637C31.8236 42.4118 30.946 42.0697 30.4912 41.6402C30.4475 41.5171 30.5038 41.4281 30.5559 41.3138C30.5909 41.3215 30.626 41.3293 30.6604 41.3385C31.1228 41.4618 31.5844 41.7559 31.9854 41.9812C33.9721 43.0973 35.6486 44.4241 37.0277 46.0328C37.3197 46.3735 37.6433 46.7317 37.8582 47.1077C37.9963 47.3494 38.098 47.5237 37.9827 47.7886Z" fill="#313031"/>
<path d="M30.4699 53.2083C30.1144 53.1648 29.3841 52.0128 29.1611 51.7318C27.7367 49.9372 25.8127 48.2407 23.6827 46.978C23.3718 46.796 23.0544 46.6219 22.7304 46.4557C22.4062 46.2896 22.0761 46.1316 21.74 45.9819C21.4039 45.8322 21.0624 45.691 20.7155 45.5583C20.3686 45.4256 20.017 45.3016 19.6607 45.1864C18.0352 44.6585 12.6175 43.5227 11.6764 42.7414C11.6295 42.6293 11.6831 42.5371 11.725 42.4296C12.3111 42.5104 12.8819 42.7929 13.4252 42.9838C13.9584 43.1685 14.4971 43.342 15.0413 43.5044C17.0592 44.1083 19.1698 44.4775 21.1117 45.248C24.4917 46.5892 27.1591 48.6839 29.2999 51.1643C29.7177 51.6483 30.3058 52.2387 30.5227 52.803C30.5861 52.9678 30.5612 53.0591 30.4699 53.2083Z" fill="#313031"/>
<path d="M32.9181 49.6761L32.756 49.645C32.3321 49.3653 31.7767 48.465 31.411 48.061C31.0953 47.71 30.7597 47.3719 30.4042 47.0467C30.0487 46.7215 29.6749 46.4106 29.2829 46.1142C28.9042 45.8242 28.5108 45.5477 28.103 45.2848C27.695 45.022 27.274 44.7736 26.8398 44.5398C26.4035 44.3047 25.2816 43.8564 25.0492 43.5423C25.033 43.4067 25.0772 43.3714 25.1552 43.2535C25.3163 43.2803 25.4641 43.3276 25.6109 43.3869C28.0416 44.3688 30.6283 46.4075 32.1854 48.1939C32.4722 48.5229 32.8296 48.8898 32.9779 49.2772C33.04 49.4393 33.0201 49.5294 32.9181 49.6761Z" fill="#313031"/>
<path d="M6.4375 44.2782C7.09213 44.0365 7.69409 43.7346 8.30412 43.4283L8.32554 43.4649C8.17192 43.5886 7.997 43.7062 7.93961 43.8803C7.96302 44.0588 8.11397 44.1268 8.29305 44.2107C9.93078 44.9785 11.6396 45.6736 13.297 46.4164C16.0643 47.661 18.8106 48.9353 21.5357 50.2395C23.8654 51.3434 26.3047 52.4554 28.4022 53.8343C29.5474 54.5871 30.5586 55.4471 31.5387 56.3362C31.1936 56.1988 30.8585 56.0427 30.5214 55.893C30.0344 55.6181 29.4701 55.3895 28.9593 55.1413L25.862 53.616C21.7076 51.5779 17.5336 49.5663 13.3401 47.5811L9.57406 45.8187C8.51686 45.3332 7.39225 44.8911 6.4375 44.2782Z" fill="#787777"/>
<path d="M14.7413 45.1187C14.1328 45.0137 12.8111 44.5818 12.3797 44.2315C12.3494 44.1208 12.384 44.07 12.4246 43.963C13.0254 44.0061 14.3495 44.461 14.7661 44.809C14.8239 44.9152 14.7746 45.0119 14.7413 45.1187Z" fill="#313031"/>
<path d="M58.3316 45.5749C58.0982 45.6834 57.8031 45.8518 57.5395 45.8975C57.4136 45.9193 57.3044 45.9187 57.1965 45.8619L57.1846 45.768C57.4335 45.2993 58.932 44.742 59.5018 44.4879C59.5347 44.4988 59.5719 44.5093 59.5997 44.5276C59.7017 44.595 59.7037 44.6217 59.7041 44.7193C59.5298 44.9801 59.0725 45.1562 58.7659 45.3111L58.8439 45.3298C59.6356 45.5201 61.4015 45.943 61.7917 46.5289L61.7089 46.5421L61.7659 46.4829C61.7986 46.5474 61.7906 46.5521 61.7811 46.6175C61.7698 46.6227 61.7593 46.6293 61.7472 46.6332C61.426 46.735 60.7605 46.3922 60.4645 46.2643C59.7679 46.005 59.0417 45.8076 58.3316 45.5749Z" fill="#313031"/>
<path d="M76.6156 51.2584C76.0414 51.1399 74.9996 50.162 74.4744 49.7928C73.6595 49.22 72.7834 48.6598 71.8742 48.1879C71.2001 47.8379 69.1291 47.0834 68.7598 46.727C68.7169 46.6193 68.7708 46.5419 68.8191 46.4426C68.8787 46.457 68.9375 46.473 68.9962 46.4893C70.9434 47.0321 74.0146 48.898 75.5875 50.0062C75.9287 50.2466 76.5028 50.5825 76.674 50.9237C76.7319 51.0388 76.664 51.1481 76.6156 51.2584Z" fill="#313031"/>
<path d="M72.3167 53.2708C72.1723 53.2413 72.0112 53.2115 71.89 53.138C71.5793 52.9493 71.3001 52.6844 71.0116 52.4714C70.5476 52.1287 70.0493 51.8095 69.5437 51.5081C68.6485 50.9824 67.7163 50.5037 66.7471 50.0722C66.1523 49.8054 64.3331 49.1797 63.9602 48.8736C63.9277 48.7535 63.9892 48.6647 64.0446 48.5562C64.0628 48.5588 64.0813 48.5607 64.0994 48.5639C65.6222 48.834 71.41 51.7826 72.2511 52.8442C72.3734 52.9984 72.3679 53.0963 72.3167 53.2708Z" fill="#313031"/>
<path d="M49.7585 52.2185C49.652 52.2208 49.556 52.2239 49.4553 52.1919C48.7706 51.9744 47.9375 51.4123 47.1573 51.1447C46.6092 50.9567 45.9132 50.8817 45.447 50.5746C45.3685 50.4423 45.3915 50.3711 45.4021 50.2265C46.4952 50.4614 49.0099 51.1697 49.6918 51.8854C49.8078 52.0072 49.7846 52.0766 49.7585 52.2185Z" fill="#313031"/>
<path d="M68.1081 55.2438C67.7134 55.1207 66.7619 54.2194 66.3487 53.9204C65.25 53.1256 63.9634 52.4282 62.6634 51.8689C62.2584 51.6946 59.5398 50.7064 59.4919 50.662C59.4754 50.535 59.5395 50.4385 59.5992 50.3248C60.6194 50.4699 62.2504 51.2018 63.1689 51.6295C64.1828 52.1018 68.0223 54.0797 68.2199 54.9611C68.2465 55.0793 68.1831 55.1493 68.1081 55.2438Z" fill="#313031"/>
<path d="M60.6924 57.1153C60.2774 56.8852 59.8343 56.6551 59.4678 56.3757C58.5175 55.6511 59.2879 55.4822 59.202 54.9073C59.183 54.7804 59.0921 54.692 58.9639 54.6254C58.796 54.5381 58.5845 54.4743 58.3838 54.5132C57.8927 54.6083 57.7196 55.1327 57.49 55.4379C57.2803 55.7163 56.9855 55.9365 56.583 56.0092C56.2214 56.0744 55.7779 56.0231 55.4706 55.8502C55.2109 55.7042 55.0221 55.4391 54.9673 55.1899C54.8661 54.73 55.1286 54.2504 55.4614 53.8874C56.1565 53.1294 57.2259 52.809 58.3406 52.6706C58.8666 52.6427 59.3656 52.6567 59.8787 52.7639C60.6718 52.9296 61.442 53.2853 61.8514 53.8786C62.2147 54.4048 62.1503 54.9142 61.9539 55.4684C62.7614 55.8852 63.6996 56.313 64.3923 56.8523C64.4888 56.9274 64.5841 56.9981 64.5875 57.1095C64.1674 57.5036 63.0643 57.8765 62.4763 58.1154C61.8924 57.7689 61.2931 57.4422 60.6924 57.1153ZM58.5329 53.0798C57.5148 53.1755 56.5164 53.4501 55.8666 54.128C55.6035 54.4026 55.4122 54.8062 55.4855 55.1553C55.515 55.296 55.6627 55.4676 55.8088 55.5476C56.0028 55.6537 56.2736 55.6514 56.4939 55.6079C56.7464 55.558 56.9404 55.4186 57.0681 55.2389C57.3476 54.8452 57.4363 54.3448 58.0606 54.2063C58.4455 54.1209 58.943 54.1675 59.2806 54.3431C59.4861 54.4499 59.6217 54.5892 59.6616 54.7867C59.7204 55.0779 59.5805 55.3832 59.4733 55.6576C59.7452 56.2147 60.6094 56.5693 61.2086 56.8802C61.6839 56.6729 62.163 56.4832 62.6543 56.3022C62.2107 56.0738 61.7434 55.8527 61.3649 55.5548C61.5426 55.0487 61.7319 54.5707 61.4015 54.0733C61.082 53.592 60.4483 53.2969 59.8137 53.1576C59.4014 53.0671 58.9572 53.0335 58.5329 53.0798ZM62.9989 56.5523C62.5455 56.7473 62.0759 56.9139 61.6217 57.1061C61.9257 57.2938 62.2306 57.483 62.5595 57.6417C63.0217 57.4548 63.4704 57.2487 63.9056 57.0234C63.6255 56.8458 63.3372 56.6525 62.9989 56.5523Z" fill="#313031"/>
<path d="M20.3171 56.3614C20.1623 56.3517 20.023 56.3378 19.9005 56.2531C19.5244 55.9935 19.3014 54.8087 19.3227 54.4097C19.3338 54.2009 19.4147 54.113 19.6004 53.9766C19.7388 53.9996 19.8771 54.0244 19.9765 54.1129C20.3795 54.4719 20.5935 55.4609 20.5728 55.935C20.5641 56.1337 20.4959 56.2275 20.3171 56.3614Z" fill="#313031"/>
<path d="M58.2222 59.1345C58.1044 59.145 58.0004 59.1507 57.8933 59.1035C57.4389 58.9032 57.0074 58.4938 56.605 58.2219C56.1017 57.8819 55.5505 57.5877 54.9922 57.3103C54.2305 56.9313 53.4392 56.5982 52.6183 56.3113C51.9763 56.0844 50.6333 55.7165 50.1303 55.4049C50.0707 55.2846 50.1143 55.1768 50.1443 55.0548C50.1987 55.0603 50.2504 55.0664 50.3038 55.0762C50.8841 55.1822 51.461 55.4114 52.0035 55.6059C53.8635 56.2729 55.5801 57.0363 57.1971 58.0396C57.531 58.2468 57.9742 58.4898 58.1934 58.7862C58.2889 58.9152 58.2681 58.9993 58.2222 59.1345Z" fill="#313031"/>
<path d="M24.6625 57.4732C24.5175 57.4676 24.3536 57.4462 24.2487 57.3571C24.1651 57.2861 24.155 57.2004 24.1655 57.1078C24.2203 56.6226 25.3005 55.6161 25.7593 55.3345C25.8936 55.3421 26.0773 55.3409 26.1827 55.4177C26.2699 55.4812 26.3024 55.5635 26.2979 55.6558C26.2731 56.1665 25.1161 57.1423 24.6625 57.4732Z" fill="#313031"/>
<path d="M58.2937 68.8196C58.2841 68.3385 58.1176 67.7258 58.2857 67.2632C58.3462 67.0967 58.6513 66.9637 58.8276 66.8782C59.8062 66.4033 60.8501 66.0003 61.8629 65.5742C63.2293 64.9981 64.5889 64.4117 65.9418 63.815C72.2441 61.0693 78.58 58.3754 84.9496 55.7332C85.6064 55.7996 86.332 56.2257 86.8898 56.5027C85.7821 57.0724 84.5739 57.5416 83.4146 58.0384C81.5478 58.8338 79.6859 59.6367 77.829 60.4471C71.7796 63.0886 65.7057 65.6929 59.6074 68.2599L58.2937 68.8196Z" fill="#787777"/>
<path d="M16.4677 58.0613C16.4383 58.061 16.4087 58.0626 16.3794 58.0604C16.0084 58.0322 14.8482 57.1547 14.57 56.8873C14.4162 56.7393 14.1971 56.5067 14.2437 56.299C14.2721 56.1722 14.378 56.1086 14.4932 56.0324C15.0219 56.0428 15.5021 56.4811 15.8675 56.7588C16.1714 56.9898 16.7868 57.3957 16.7525 57.7607C16.7384 57.9093 16.6028 57.982 16.4677 58.0613Z" fill="#313031"/>
<path d="M32.1279 56.5964C32.3504 56.49 32.5954 56.4111 32.8308 56.3252C32.9947 56.3508 33.0986 56.4619 33.2096 56.554C33.8317 56.5496 34.3989 56.5568 34.9787 56.7639C36.0448 57.1447 37.0266 57.7093 38.0459 58.1675C41.1522 59.5851 44.2429 61.0248 47.3178 62.4866C49.4897 63.5223 51.6738 64.5408 53.8703 65.5421C55.1457 66.1252 56.4909 66.67 57.716 67.3153C57.7875 67.7908 57.7871 68.2547 57.7645 68.732L57.3309 68.5364C55.011 67.4174 52.6746 66.3214 50.3218 65.2484L38.078 59.4774C37.0461 58.9827 36.02 58.4764 34.9766 57.9979C34.0179 57.5583 32.9726 57.175 32.1279 56.5964Z" fill="#787777"/>
<path d="M22.0861 68.4197C21.212 67.4523 18.6257 66.7561 17.3444 65.9517C17.2673 65.9037 17.1918 65.8541 17.1178 65.8031C17.0438 65.752 16.9715 65.6994 16.9008 65.6453C16.8301 65.5913 16.7611 65.5359 16.6938 65.479C16.6266 65.4222 16.5611 65.3641 16.4975 65.3046C16.4338 65.2451 16.372 65.1843 16.3121 65.1223C16.2522 65.0604 16.1943 64.9972 16.1383 64.9329C16.0823 64.8685 16.0284 64.8031 15.9765 64.7365C15.9246 64.67 15.8747 64.6025 15.8271 64.5339C15.7793 64.4653 15.7338 64.3959 15.6904 64.3255C15.647 64.2551 15.6058 64.1839 15.5668 64.1118C15.5278 64.0397 15.4911 63.9669 15.4567 63.8933C15.4222 63.8198 15.3901 63.7456 15.3602 63.6707C15.3303 63.5958 15.3028 63.5203 15.2777 63.4444C15.2525 63.3684 15.2297 63.2919 15.2093 63.2151C15.1888 63.1381 15.1708 63.0608 15.1552 62.9832C15.1395 62.9056 15.1263 62.8277 15.1156 62.7495C15.1041 62.6708 15.0951 62.5919 15.0885 62.5128C15.0819 62.4337 15.0778 62.3546 15.0761 62.2753C15.0744 62.196 15.0751 62.1168 15.0784 62.0376C15.0816 61.9584 15.0872 61.8793 15.0953 61.8003C15.1034 61.7213 15.1139 61.6426 15.1268 61.564C15.1398 61.4854 15.1552 61.4072 15.173 61.3292C15.1908 61.2513 15.211 61.1737 15.2336 61.0966C15.2562 61.0195 15.2811 60.9429 15.3084 60.8668C15.3358 60.7906 15.3654 60.7151 15.3974 60.6402C15.4294 60.5653 15.4637 60.4911 15.5003 60.4175C15.5368 60.344 15.5756 60.2712 15.6167 60.1993C15.6578 60.1273 15.7011 60.0562 15.7465 59.9859C15.7919 59.9157 15.8396 59.8465 15.8893 59.7782C15.9391 59.7099 15.9909 59.6426 16.0448 59.5764C16.0987 59.5102 16.1546 59.4451 16.2125 59.3812C16.2704 59.3172 16.3303 59.2545 16.3921 59.193C17.5911 57.9894 19.4669 57.3658 21.3303 57.2009C21.7372 57.1794 22.1393 57.185 22.544 57.2284C24.1664 57.402 25.7197 58.093 26.711 59.1506C28.6643 61.2348 27.6554 63.5926 27.2449 65.9092C28.0388 66.1958 27.7962 66.5527 28.2376 67.0141C28.317 67.0971 28.3897 67.1843 28.4648 67.2698C28.4517 67.4132 28.4219 67.5565 28.3979 67.6989C28.5235 67.8569 28.7022 68.0405 28.7436 68.2276C28.7916 68.4447 28.6924 68.5877 28.5449 68.7626C28.76 69.162 29.0064 69.5907 29.0218 70.0334C29.036 70.4444 28.8216 70.8099 28.4695 71.1003C27.812 71.6426 26.6018 72.0806 25.6563 72.0747C25.0638 72.0711 24.6753 71.8984 24.2781 71.5641C24.0509 71.2954 23.8552 71.0218 23.6658 70.7347C23.4651 70.6831 23.2837 70.6188 23.0945 70.5453C22.8795 70.1992 22.8172 69.9224 22.455 69.6404L22.4149 69.1678L22.0643 68.8895C22.0729 68.733 22.0802 68.5764 22.0861 68.4197ZM21.6259 57.5361C19.7886 57.6562 18.0102 58.2613 16.8003 59.4125C15.868 60.2996 15.4304 61.3951 15.5524 62.5544C15.6723 63.6941 16.3295 64.7982 17.4214 65.5339C18.2926 66.1208 19.3754 66.5162 20.3616 66.9602C21.1177 67.3007 21.8277 67.6829 22.5221 68.0998C22.8893 67.9694 23.3229 67.8853 23.7135 67.81C23.1892 67.0945 22.5272 66.4598 21.8923 65.8083C21.5894 65.4976 21.2898 65.1245 20.9179 64.8676C20.8089 64.8505 20.7243 64.8489 20.6131 64.8534C20.4304 64.8606 20.3423 64.8272 20.1969 64.74C20.0781 64.6343 19.9838 64.5619 19.9982 64.4079C20.0225 64.1483 20.233 63.761 20.4875 63.6025C20.6276 63.5152 20.834 63.4673 21.0098 63.4914C21.2092 63.5188 21.4022 63.6225 21.5737 63.7038C21.5695 63.4854 21.5295 63.2049 21.7321 63.031C21.838 62.9402 21.9646 62.9082 22.1153 62.9114C22.3723 62.9166 22.6266 63.027 22.8525 63.1169C22.9151 62.8319 22.9691 62.6314 23.2749 62.4459C23.357 62.3962 23.4556 62.3559 23.5612 62.3631C23.7118 62.3733 23.8221 62.4654 23.9035 62.5599C24.2287 62.9374 24.0231 63.3496 24.148 63.7595C24.4463 64.7377 24.9983 66.1504 25.5495 67.0374C25.971 66.8006 26.3816 66.5815 26.7059 66.2545C26.7475 65.8677 26.7843 65.4787 26.8657 65.0959C26.989 64.5153 27.1907 63.9461 27.3066 63.3646C27.5984 61.8992 27.3559 60.336 26.1458 59.1671C25.2014 58.2549 23.6709 57.646 22.2098 57.5456C22.0154 57.5311 21.8208 57.5279 21.6259 57.5361ZM23.4319 62.7655C23.3807 62.8872 23.3221 62.9917 23.353 63.1223C23.4293 63.1955 23.4436 63.2014 23.5565 63.2313C23.6158 63.1232 23.6845 63.0312 23.6557 62.9096C23.5873 62.8322 23.5376 62.8062 23.4319 62.7655ZM22.0021 63.2018C22.0436 63.3695 22.0635 63.545 22.1921 63.6852C22.2858 63.7356 22.3406 63.7452 22.4524 63.7523C22.4257 63.6217 22.4131 63.4022 22.2836 63.3104C22.2054 63.2548 22.0994 63.227 22.0021 63.2018ZM22.958 63.7632C22.8036 63.9259 22.6402 64.1092 22.369 64.1383C22.1485 64.1619 21.9606 64.1055 21.759 64.0416C21.8215 64.1421 21.8944 64.2218 21.9818 64.3092C21.8235 64.4543 21.6688 64.5921 21.4864 64.7184C22.2502 65.6049 23.1752 66.4065 23.8607 67.3349L24.1066 67.6761C24.4583 67.5521 24.8152 67.4336 25.1601 67.2976C24.8918 66.6345 24.5358 65.9971 24.2671 65.3333C24.0665 64.8375 23.9555 64.2826 23.7082 63.8064C23.6332 63.8184 23.5663 63.8343 23.493 63.851C23.2977 63.8953 23.1326 63.8291 22.958 63.7632ZM20.6606 63.8454C20.6862 63.9885 20.7149 64.117 20.8752 64.2051C20.9614 64.2523 21.1014 64.2842 21.2055 64.2905C21.1403 64.1081 21.0791 63.9913 20.8631 63.9002C20.7982 63.8729 20.7312 63.8588 20.6606 63.8454ZM27.2232 66.3709C26.2016 67.2014 25.233 67.814 23.8356 68.1725C23.4805 68.2636 22.6976 68.3572 22.5494 68.6677C22.5653 68.7453 22.5723 68.7762 22.6674 68.8184C22.7578 68.8586 22.8783 68.8512 22.9771 68.8486C24.3476 68.6666 25.5242 68.2181 26.6014 67.5074C26.8907 67.3163 27.2031 67.1012 27.4156 66.85C27.4856 66.7673 27.5134 66.6998 27.53 66.6014C27.4885 66.509 27.4177 66.4252 27.2967 66.3846C27.2735 66.3769 27.2477 66.3754 27.2232 66.3709ZM27.6485 67.1932C26.7796 67.8714 25.8464 68.4926 24.7081 68.8517C24.1465 69.0288 23.2824 69.1004 22.8176 69.409L22.8255 69.4689C22.9242 69.5165 22.9838 69.5248 23.0981 69.5297C25.1041 69.3734 26.6665 68.6587 28.0329 67.4771C27.9144 67.3777 27.7978 67.2618 27.6485 67.1932ZM28.0138 68.0816C26.3667 69.151 25.27 69.5821 23.2174 69.9941C23.3183 70.0953 23.4107 70.201 23.5436 70.2762C24.9158 70.0631 27.359 69.4602 28.1896 68.4907C28.258 68.411 28.2806 68.3531 28.2681 68.255C28.1993 68.1789 28.131 68.1075 28.0138 68.0816ZM28.086 69.0884C26.8555 69.8206 25.6724 70.2901 24.1918 70.6048C24.3813 70.9514 24.576 71.2978 24.9673 71.5273C25.4376 71.7423 25.8272 71.7579 26.3471 71.6416C27.0777 71.4781 27.9623 71.0872 28.3426 70.5384C28.5566 70.2295 28.584 69.8828 28.4509 69.5476C28.3849 69.3812 28.295 69.2398 28.1537 69.1082L28.086 69.0884Z" fill="#313031"/>
<path d="M25.5864 59.3543C24.8509 59.1137 24.3416 58.5819 23.5456 58.3947C23.1441 58.3003 22.1687 58.2663 21.9025 58.0157C21.8809 57.9088 21.8906 57.8892 21.9388 57.787C22.0348 57.7861 22.1308 57.7881 22.2266 57.7931C23.1774 57.8391 24.7484 58.2309 25.3797 58.844C25.55 59.0095 25.6156 59.1406 25.5864 59.3543Z" fill="#313031"/>
<path d="M28.766 59.7436C28.7394 59.7432 28.7128 59.7433 28.6862 59.7425C28.5065 59.7374 28.329 59.7033 28.2039 59.5947C28.1783 59.535 28.17 59.5012 28.1857 59.4374C28.2939 58.9984 29.4631 58.3148 29.907 58.0797C30.1205 58.0829 30.2921 58.099 30.4522 58.2241C30.4802 58.297 30.4994 58.3174 30.4796 58.3953C30.3547 58.8864 29.2491 59.4871 28.766 59.7436Z" fill="#313031"/>
<path d="M16.6243 64.381C16.5548 64.3249 16.491 64.2704 16.4339 64.2057C15.8164 63.5066 15.7721 62.4604 15.9482 61.6445C16.1392 60.7596 16.6522 59.7234 17.589 59.1891C17.6274 59.2132 17.704 59.2537 17.7342 59.2877C17.7773 59.3363 17.8038 59.3717 17.7737 59.4275C17.6798 59.6013 17.4679 59.7695 17.3266 59.9228C16.9791 60.2994 16.7427 60.7244 16.5681 61.171C16.32 61.8054 16.2317 62.5889 16.4722 63.2335C16.5672 63.4882 16.8494 63.9227 16.8072 64.1836C16.7915 64.2806 16.713 64.3246 16.6243 64.381Z" fill="#313031"/>
<path d="M13.5722 61.3102C12.9989 61.347 12.2715 60.9749 11.7996 60.7368C11.5481 60.6098 11.1797 60.3959 11.1397 60.136C11.1163 59.9846 11.2355 59.8815 11.3483 59.7764C11.6804 59.7872 11.9931 59.9142 12.2893 60.0276C12.6458 60.1641 13.7168 60.5709 13.8058 60.906C13.8482 61.0654 13.6833 61.1965 13.5722 61.3102Z" fill="#313031"/>
<path d="M31.1581 63.0915C30.8698 63.0732 30.584 63.05 30.2984 63.0135C29.8683 62.9585 29.2126 62.8676 28.9423 62.5685C28.9301 62.5145 28.909 62.482 28.9397 62.4291C29.0215 62.2878 29.2275 62.1966 29.3937 62.1302C29.778 62.1449 30.1679 62.1866 30.5476 62.2354C30.8548 62.275 31.3468 62.3418 31.5138 62.5799C31.5697 62.6595 31.5704 62.7524 31.534 62.8376C31.4713 62.9841 31.32 63.0348 31.1581 63.0915Z" fill="#313031"/>
<path d="M10.9315 65.367C10.8342 65.3645 10.7249 65.3649 10.6352 65.3306C10.4863 65.2737 10.4085 65.1572 10.3643 65.0363C10.3717 64.9618 10.3812 64.9237 10.435 64.8602C10.7554 64.4825 12.347 64.2875 12.8919 64.2123C12.9572 64.2142 13.0241 64.2231 13.0881 64.2335C13.2233 64.2553 13.3593 64.3157 13.4218 64.4208C13.4678 64.4981 13.4567 64.5702 13.3986 64.6407C13.0776 65.0304 11.4829 65.2609 10.9315 65.367Z" fill="#313031"/>
<path d="M22.9766 68.8486C22.8777 68.8512 22.7573 68.8586 22.6669 68.8184C22.5718 68.7762 22.5648 68.7453 22.5488 68.6677C22.6971 68.3572 23.48 68.2636 23.8351 68.1725C25.2324 67.814 26.2011 67.2014 27.2227 66.3709C27.2472 66.3754 27.273 66.3768 27.2962 66.3846C27.4172 66.4252 27.488 66.509 27.5295 66.6014C27.5128 66.6998 27.485 66.7673 27.4151 66.85C27.2026 67.1012 26.8902 67.3163 26.6008 67.5073C25.5237 68.2181 24.347 68.6666 22.9766 68.8486Z" fill="#787777"/>
<path d="M23.0979 69.5297C22.9836 69.5248 22.924 69.5164 22.8253 69.4689L22.8174 69.409C23.2822 69.1004 24.1463 69.0288 24.7079 68.8517C25.8462 68.4926 26.7794 67.8714 27.6483 67.1932C27.7976 67.2618 27.9142 67.3777 28.0327 67.4771C26.6662 68.6587 25.1039 69.3734 23.0979 69.5297Z" fill="#787777"/>
<path d="M14.0935 68.9876C13.8937 69.0025 13.7105 68.9754 13.5397 68.8908C13.4743 68.8017 13.456 68.7808 13.4822 68.6725C13.5902 68.227 14.829 67.523 15.2874 67.2394C15.5054 67.2553 15.6951 67.2853 15.8534 67.4149C15.8798 67.4781 15.902 67.5071 15.8907 67.5752C15.8092 68.0648 14.5573 68.7223 14.0935 68.9876Z" fill="#313031"/>
<path d="M23.2168 69.9941C25.2695 69.5821 26.3662 69.151 28.0133 68.0816C28.1304 68.1075 28.1987 68.1789 28.2676 68.255C28.28 68.3531 28.2575 68.411 28.1891 68.4908C27.3584 69.4602 24.9152 70.0631 23.543 70.2763C23.4101 70.2011 23.3177 70.0953 23.2168 69.9941Z" fill="#787777"/>
<path d="M24.1914 70.6048C25.672 70.2901 26.8551 69.8206 28.0856 69.0884L28.1534 69.1082C28.2946 69.2399 28.3845 69.3812 28.4505 69.5476C28.5836 69.8828 28.5563 70.2295 28.3422 70.5384C27.9619 71.0872 27.0773 71.4781 26.3467 71.6416C25.8268 71.7579 25.4372 71.7423 24.9669 71.5274C24.5756 71.2978 24.3809 70.9514 24.1914 70.6048Z" fill="#787777"/>
</svg>
