<svg width="57" height="57" viewBox="0 0 57 57" fill="none" xmlns="http://www.w3.org/2000/svg">
<g clip-path="url(#clip0_15_18)">
<path fill-rule="evenodd" clip-rule="evenodd" d="M28.5 53.4375C14.7274 53.4375 3.5625 42.2691 3.5625 28.5C3.5625 14.7309 14.7274 3.5625 28.5 3.5625C42.2726 3.5625 53.4375 14.7309 53.4375 28.5C53.4375 42.2691 42.2726 53.4375 28.5 53.4375ZM28.5 0C12.7591 0 0 12.7537 0 28.5C0 44.2463 12.7591 57 28.5 57C44.2409 57 57 44.2463 57 28.5C57 12.7537 44.2409 0 28.5 0ZM39.1875 26.7188H30.2812V17.8125C30.2812 16.8328 29.485 16.0312 28.5 16.0312C27.515 16.0312 26.7188 16.8328 26.7188 17.8125V26.7188H17.8125C16.8275 26.7188 16.0312 27.5203 16.0312 28.5C16.0312 29.4797 16.8275 30.2812 17.8125 30.2812H26.7188V39.1875C26.7188 40.1672 27.515 40.9688 28.5 40.9688C29.485 40.9688 30.2812 40.1672 30.2812 39.1875V30.2812H39.1875C40.1725 30.2812 40.9688 29.4797 40.9688 28.5C40.9688 27.5203 40.1725 26.7188 39.1875 26.7188Z" fill="black"/>
</g>
<defs>
<clipPath id="clip0_15_18">
<rect width="57" height="57" fill="white"/>
</clipPath>
</defs>
</svg>
