<svg width="35" height="35" viewBox="0 0 35 35" fill="none" xmlns="http://www.w3.org/2000/svg">
<path d="M31.2604 4.75341C31.0344 4.55814 30.7593 4.42846 30.4648 4.37845C30.1703 4.32843 29.8678 4.35999 29.59 4.4697L4.35758 14.3825C4.02773 14.512 3.74871 14.745 3.56227 15.0463C3.37583 15.3477 3.292 15.7014 3.32331 16.0544C3.35463 16.4074 3.49941 16.7407 3.736 17.0046C3.97258 17.2684 4.28825 17.4486 4.63576 17.5181L11.4846 18.8879V27.3416C11.4812 27.6669 11.576 27.9856 11.7567 28.256C11.9374 28.5264 12.1956 28.736 12.4974 28.8573C12.6995 28.942 12.9164 28.9858 13.1356 28.9864C13.3498 28.9857 13.5617 28.9425 13.7591 28.8593C13.9564 28.7761 14.1353 28.6545 14.2853 28.5016L18.1949 24.592L23.9636 29.6684C24.2608 29.9324 24.6445 30.0784 25.042 30.0788C25.2149 30.0786 25.3866 30.0514 25.551 29.9981C25.8221 29.9121 26.066 29.7565 26.2582 29.5468C26.4504 29.3372 26.5843 29.0808 26.6465 28.8032L31.789 6.36319C31.8562 6.07217 31.8424 5.76833 31.7492 5.48458C31.656 5.20082 31.487 4.94797 31.2604 4.75341ZM4.41279 15.9577C4.39918 15.8395 4.42582 15.7203 4.48839 15.6191C4.55096 15.518 4.6458 15.4409 4.75759 15.4004L27.887 6.31376L11.9046 17.8566L4.85025 16.4457C4.73307 16.4254 4.62614 16.3662 4.54676 16.2777C4.46738 16.1891 4.42018 16.0764 4.41279 15.9577ZM13.5119 27.7283C13.4354 27.8048 13.3379 27.8569 13.2319 27.878C13.1258 27.8991 13.0158 27.8883 12.9159 27.8469C12.816 27.8055 12.7306 27.7354 12.6705 27.6455C12.6104 27.5555 12.5783 27.4498 12.5783 27.3417V19.6493L17.3722 23.868L13.5119 27.7283ZM30.7229 6.11887L25.5804 28.5589C25.5593 28.6512 25.5145 28.7365 25.4504 28.8063C25.3864 28.8761 25.3054 28.9281 25.2152 28.9572C25.125 28.9863 25.0289 28.9914 24.9361 28.9722C24.8434 28.9529 24.7572 28.9099 24.6861 28.8473L12.9072 18.4818L30.6345 5.67874C30.6812 5.74086 30.7133 5.81263 30.7286 5.88878C30.7439 5.96494 30.742 6.04356 30.7229 6.11887Z" fill="black"/>
</svg>
